<svg width="1200" height="800" viewBox="0 0 1200 800" fill="none" xmlns="http://www.w3.org/2000/svg" role="img" aria-label="Abstract trading analytics illustration">
  <rect width="1200" height="800" rx="48" fill="url(#paint0_linear)"/>
  <rect x="72" y="92" width="1056" height="616" rx="32" fill="url(#paint1_linear)" stroke="rgba(255,255,255,0.25)" stroke-width="2"/>
  <g opacity="0.9">
    <rect x="128" y="180" width="260" height="24" rx="12" fill="rgba(255,255,255,0.45)"/>
    <rect x="128" y="228" width="190" height="16" rx="8" fill="rgba(255,255,255,0.28)"/>
  </g>
  <g opacity="0.75">
    <rect x="128" y="300" width="180" height="96" rx="18" fill="rgba(15,23,42,0.22)"/>
    <rect x="328" y="300" width="180" height="96" rx="18" fill="rgba(15,23,42,0.22)"/>
    <rect x="528" y="300" width="180" height="96" rx="18" fill="rgba(15,23,42,0.22)"/>
  </g>
  <g opacity="0.9">
    <path d="M172 552C242 510 298 524 356 500C414 476 466 392 538 410C610 428 642 520 700 532C758 544 810 490 872 476C934 462 990 438 1040 420" stroke="rgba(59,130,246,0.85)" stroke-width="6" stroke-linecap="round"/>
    <path d="M172 604C242 564 310 596 370 562C430 528 474 470 542 480C610 490 640 552 710 574C780 596 836 556 896 530C956 504 1002 474 1040 458" stroke="rgba(148,163,184,0.8)" stroke-width="4" stroke-linecap="round"/>
  </g>
  <g opacity="0.85">
    <rect x="780" y="250" width="24" height="90" rx="12" fill="rgba(59,130,246,0.8)"/>
    <rect x="820" y="230" width="24" height="120" rx="12" fill="rgba(14,165,233,0.75)"/>
    <rect x="860" y="270" width="24" height="80" rx="12" fill="rgba(59,130,246,0.7)"/>
    <rect x="900" y="210" width="24" height="140" rx="12" fill="rgba(14,165,233,0.75)"/>
  </g>
  <circle cx="1000" cy="160" r="60" fill="rgba(15,23,42,0.2)"/>
  <circle cx="1000" cy="160" r="34" fill="rgba(255,255,255,0.3)"/>
  <defs>
    <linearGradient id="paint0_linear" x1="0" y1="0" x2="1200" y2="800" gradientUnits="userSpaceOnUse">
      <stop stop-color="#0F172A"/>
      <stop offset="1" stop-color="#1F2937"/>
    </linearGradient>
    <linearGradient id="paint1_linear" x1="72" y1="92" x2="1128" y2="708" gradientUnits="userSpaceOnUse">
      <stop stop-color="rgba(255,255,255,0.15)"/>
      <stop offset="1" stop-color="rgba(255,255,255,0.05)"/>
    </linearGradient>
  </defs>
</svg>
