<svg width="1200" height="760" viewBox="0 0 1200 760" fill="none" xmlns="http://www.w3.org/2000/svg" role="img" aria-label="Calendar daily P and L preview">
  <defs>
    <linearGradient id="bg" x1="0" y1="0" x2="1200" y2="760" gradientUnits="userSpaceOnUse">
      <stop stop-color="#0D1724"/>
      <stop offset="1" stop-color="#132842"/>
    </linearGradient>
  </defs>
  <rect width="1200" height="760" rx="36" fill="url(#bg)"/>
  <rect x="36" y="36" width="1128" height="688" rx="26" fill="#0B1320" stroke="#314A69" stroke-width="2"/>
  <text x="88" y="118" fill="#EAF4FF" font-size="38" font-weight="700" font-family="Inter, Segoe UI, sans-serif">Calendar review</text>
  <text x="88" y="160" fill="#8EA9C9" font-size="24" font-family="Inter, Segoe UI, sans-serif">Daily P and L heatmap</text>
  <rect x="88" y="200" width="1024" height="460" rx="22" fill="#101F33" stroke="#2F4968"/>
  <rect x="128" y="248" width="944" height="54" rx="12" fill="#12253B"/>
  <g fill="#8EA9C9" font-size="20" font-family="Inter, Segoe UI, sans-serif">
    <text x="156" y="282">Mon</text>
    <text x="294" y="282">Tue</text>
    <text x="432" y="282">Wed</text>
    <text x="570" y="282">Thu</text>
    <text x="708" y="282">Fri</text>
    <text x="846" y="282">Sat</text>
    <text x="982" y="282">Sun</text>
  </g>
  <g stroke="#2F4968">
    <rect x="128" y="322" width="114" height="70" rx="10" fill="#15324B"/>
    <rect x="266" y="322" width="114" height="70" rx="10" fill="#2A6C95"/>
    <rect x="404" y="322" width="114" height="70" rx="10" fill="#294D70"/>
    <rect x="542" y="322" width="114" height="70" rx="10" fill="#143046"/>
    <rect x="680" y="322" width="114" height="70" rx="10" fill="#61303A"/>
    <rect x="818" y="322" width="114" height="70" rx="10" fill="#6F3A43"/>
    <rect x="956" y="322" width="114" height="70" rx="10" fill="#193951"/>
    <rect x="128" y="412" width="114" height="70" rx="10" fill="#4A2832"/>
    <rect x="266" y="412" width="114" height="70" rx="10" fill="#1D425E"/>
    <rect x="404" y="412" width="114" height="70" rx="10" fill="#326F9B"/>
    <rect x="542" y="412" width="114" height="70" rx="10" fill="#2A5B82"/>
    <rect x="680" y="412" width="114" height="70" rx="10" fill="#193951"/>
    <rect x="818" y="412" width="114" height="70" rx="10" fill="#61303A"/>
    <rect x="956" y="412" width="114" height="70" rx="10" fill="#234C6F"/>
    <rect x="128" y="502" width="114" height="70" rx="10" fill="#234C6F"/>
    <rect x="266" y="502" width="114" height="70" rx="10" fill="#152F45"/>
    <rect x="404" y="502" width="114" height="70" rx="10" fill="#4E2A34"/>
    <rect x="542" y="502" width="114" height="70" rx="10" fill="#2A5B82"/>
    <rect x="680" y="502" width="114" height="70" rx="10" fill="#356F9A"/>
    <rect x="818" y="502" width="114" height="70" rx="10" fill="#1B3D59"/>
    <rect x="956" y="502" width="114" height="70" rx="10" fill="#64343E"/>
  </g>
  <rect x="948" y="82" width="164" height="78" rx="14" fill="#101F33" stroke="#2F4968"/>
  <text x="974" y="112" fill="#8EA9C9" font-size="18" font-family="Inter, Segoe UI, sans-serif">Month P and L</text>
  <text x="974" y="145" fill="#EEF5FF" font-size="30" font-weight="700" font-family="Inter, Segoe UI, sans-serif">+4.2R</text>
</svg>
